# xmcd CD database file
#
# Track frame offsets:
#	150
#	16837
#	31371
#	41113
#	51954
#	61141
#	76074
#	86843
#	99022
#	106488
#
# Disc length: 1624 seconds
#
# Revision: 0
# Processed by: cddbd v1.5.1PL2 Copyright (c) Steve Scherf et al.
# Submitted via: CDex 1.51
#
DISCID=7006560a
DTITLE=Bob Dylan - NASHVILLE SKYLINE
DYEAR=2004
DGENRE=Rock
TTITLE0=Girl From The North Country
TTITLE1=Nashville Skyline Rag
TTITLE2=To Be Alone With You
TTITLE3=I Threw It All Away
TTITLE4=Peggy Day
TTITLE5=Lay　Lady　Lay
TTITLE6=One More Night
TTITLE7=Tell Me That It Isn't True
TTITLE8=Country Pie
TTITLE9=Tonight I'll Be Staying Here With You
EXTD=YEAR: 2004
EXTT0=
EXTT1=
EXTT2=
EXTT3=
EXTT4=
EXTT5=
EXTT6=
EXTT7=
EXTT8=
EXTT9=
PLAYORDER=
